# Blender v2.79 (sub 0) OBJ File: 'a.blend'
# www.blender.org
mtllib Barrel.mtl
o Cylinder
v -0.000000 0.313822 -0.188134
v -0.000000 0.411356 -0.157940
v 0.078970 0.411356 -0.136780
v 0.094067 0.313822 -0.162929
v 0.136780 0.411356 -0.078970
v 0.162929 0.313822 -0.094067
v 0.157940 0.411356 -0.000000
v 0.188134 0.313822 -0.000000
v 0.136780 0.411356 0.078970
v 0.162929 0.313822 0.094067
v 0.078970 0.411356 0.136780
v 0.094067 0.313822 0.162929
v -0.000000 0.411356 0.157940
v -0.000000 0.313822 0.188134
v -0.078970 0.411356 0.136780
v -0.094067 0.313822 0.162929
v -0.136780 0.411356 0.078970
v -0.162929 0.313822 0.094067
v -0.157940 0.411356 0.000000
v -0.188134 0.313822 0.000000
v -0.136780 0.411356 -0.078970
v -0.162929 0.313822 -0.094067
v 0.062927 0.411356 0.108993
v 0.108993 0.411356 0.062927
v 0.108993 0.376939 0.062927
v 0.062927 0.376939 0.108993
v -0.078970 0.411356 -0.136780
v -0.094067 0.313822 -0.162929
v -0.000000 0.000000 -0.155344
v 0.077672 0.000000 -0.134532
v 0.134532 0.000000 -0.077672
v 0.155344 0.000000 -0.000000
v 0.134532 -0.000000 0.077672
v 0.077672 -0.000000 0.134532
v -0.000000 -0.000000 0.155344
v -0.077672 -0.000000 0.134532
v -0.134532 -0.000000 0.077672
v -0.155344 -0.000000 0.000000
v -0.134532 0.000000 -0.077672
v -0.077672 0.000000 -0.134532
v -0.094565 0.085667 -0.163792
v -0.097358 0.205678 -0.168629
v -0.000000 0.205678 -0.194716
v -0.000000 0.085667 -0.189130
v -0.163792 0.085667 -0.094565
v -0.168629 0.205678 -0.097358
v -0.189130 0.085667 0.000000
v -0.194716 0.205678 0.000000
v -0.163792 0.085667 0.094565
v -0.168629 0.205678 0.097358
v -0.094565 0.085667 0.163792
v -0.097358 0.205678 0.168629
v -0.000000 0.085667 0.189130
v -0.000000 0.205678 0.194716
v 0.094565 0.085667 0.163792
v 0.097358 0.205678 0.168629
v 0.163792 0.085667 0.094565
v 0.168629 0.205678 0.097358
v 0.189130 0.085667 -0.000000
v 0.194716 0.205678 -0.000000
v 0.163792 0.085667 -0.094565
v 0.168629 0.205678 -0.097358
v 0.094565 0.085667 -0.163792
v 0.097358 0.205678 -0.168629
v -0.000000 0.411356 -0.125854
v 0.062927 0.411356 -0.108993
v 0.108993 0.411356 -0.062927
v 0.125854 0.411356 -0.000000
v -0.000000 0.411356 0.125854
v -0.062927 0.411356 0.108993
v -0.108993 0.411356 0.062927
v -0.125854 0.411356 0.000000
v -0.108993 0.411356 -0.062927
v -0.062927 0.411356 -0.108993
v 0.062927 0.376939 -0.108993
v -0.000000 0.376939 -0.125854
v -0.062927 0.376939 -0.108993
v -0.108993 0.376939 -0.062927
v -0.125854 0.376939 0.000000
v -0.108993 0.376939 0.062927
v -0.062927 0.376939 0.108993
v -0.000000 0.376939 0.125854
v 0.125854 0.376939 -0.000000
v 0.108993 0.376939 -0.062927
vt 0.215680 0.502936
vt 0.129341 0.503352
vt 0.127897 0.433958
vt 0.214466 0.427704
vt 0.123196 0.365114
vt 0.209090 0.352568
vt 0.114382 0.296896
vt 0.199131 0.277549
vt 0.100534 0.230113
vt 0.184031 0.202493
vt 0.079815 0.166073
vt 0.162037 0.127417
vt 0.046554 0.107648
vt 0.129697 0.052937
vt 0.137508 0.962075
vt 0.049439 0.912817
vt 0.078775 0.848681
vt 0.163050 0.883586
vt 0.097233 0.781543
vt 0.181625 0.806044
vt 0.110676 0.712589
vt 0.195571 0.729586
vt 0.120246 0.642851
vt 0.205907 0.653795
vt 0.055928 0.180354
vt 0.075168 0.239989
vt 0.046788 0.249748
vt 0.028985 0.193983
vt 0.126199 0.573096
vt 0.212696 0.578274
vt 0.952794 0.667640
vt 0.952794 0.736679
vt 0.918275 0.796468
vt 0.858486 0.830987
vt 0.789447 0.830988
vt 0.729658 0.796468
vt 0.695138 0.736679
vt 0.695138 0.667640
vt 0.729658 0.607851
vt 0.789447 0.573332
vt 0.858485 0.573332
vt 0.918275 0.607851
vt 0.404463 0.588040
vt 0.303571 0.583065
vt 0.306735 0.503143
vt 0.407810 0.504450
vt 0.396976 0.670950
vt 0.296340 0.662944
vt 0.386200 0.753035
vt 0.285603 0.742978
vt 0.373650 0.834451
vt 0.272049 0.823718
vt 0.362177 0.915748
vt 0.256645 0.905869
vt 0.357088 0.998047
vt 0.241282 0.990022
vt 0.361846 0.086329
vt 0.255336 0.100241
vt 0.232325 0.017592
vt 0.350215 0.001953
vt 0.376932 0.169472
vt 0.274537 0.181881
vt 0.390593 0.252754
vt 0.289399 0.262645
vt 0.400782 0.336466
vt 0.299757 0.342957
vt 0.406610 0.420475
vt 0.305506 0.423112
vt 0.485660 0.505889
vt 0.484500 0.419229
vt 0.478718 0.332758
vt 0.468787 0.247350
vt 0.456033 0.164022
vt 0.443406 0.084129
vt 0.437366 0.009711
vt 0.440040 0.986877
vt 0.441695 0.915632
vt 0.451871 0.839307
vt 0.463955 0.759387
vt 0.474665 0.676700
vt 0.482228 0.591960
vt 0.101931 0.503469
vt 0.102472 0.435865
vt 0.096811 0.368894
vt 0.087439 0.303555
vt 0.027121 0.129680
vt 0.028745 0.890564
vt 0.054288 0.835759
vt 0.071747 0.772720
vt 0.083746 0.706632
vt 0.093900 0.639508
vt 0.100848 0.571493
vt 0.801887 0.334525
vt 0.857820 0.334525
vt 0.906259 0.362492
vt 0.934225 0.410931
vt 0.934225 0.466864
vt 0.906259 0.515303
vt 0.857819 0.543269
vt 0.801887 0.543269
vt 0.753448 0.515303
vt 0.725481 0.466864
vt 0.725481 0.410931
vt 0.753448 0.362492
vt 0.071195 0.569267
vt 0.072454 0.503575
vt 0.072728 0.438028
vt 0.067588 0.373879
vt 0.043358 0.763781
vt 0.054869 0.700048
vt 0.001953 0.145254
vt 0.058545 0.310664
vt 0.064582 0.634698
vt 0.001953 0.876064
vt 0.026652 0.823084
vn 0.2480 0.2865 -0.9254
vn 0.6775 0.2865 -0.6775
vn 0.9254 0.2865 -0.2480
vn 0.9254 0.2865 0.2480
vn 0.6775 0.2865 0.6775
vn 0.2480 0.2865 0.9254
vn -0.2480 0.2865 0.9254
vn -0.6775 0.2865 0.6775
vn -0.9254 0.2865 0.2480
vn -0.9254 0.2865 -0.2480
vn -0.7071 0.0000 -0.7071
vn -0.6775 0.2865 -0.6775
vn -0.2480 0.2865 -0.9254
vn 0.0000 -1.0000 -0.0000
vn -0.2586 -0.0449 -0.9650
vn -0.7064 -0.0449 -0.7064
vn -0.9650 -0.0449 -0.2586
vn -0.9650 -0.0449 0.2586
vn -0.7064 -0.0449 0.7064
vn -0.2586 -0.0449 0.9650
vn 0.2586 -0.0449 0.9650
vn 0.7064 -0.0449 0.7064
vn 0.9650 -0.0449 0.2586
vn 0.9650 -0.0449 -0.2586
vn 0.7064 -0.0449 -0.7064
vn 0.2586 -0.0449 -0.9650
vn -0.2584 0.0587 -0.9643
vn -0.7059 0.0587 -0.7059
vn -0.9643 0.0587 -0.2584
vn -0.9643 0.0587 0.2584
vn -0.7059 0.0587 0.7059
vn -0.2584 0.0587 0.9643
vn 0.2584 0.0587 0.9643
vn 0.7059 0.0587 0.7059
vn 0.9643 0.0587 0.2584
vn 0.9643 0.0587 -0.2584
vn 0.7059 0.0587 -0.7059
vn 0.2584 0.0587 -0.9643
vn 0.2419 -0.3560 -0.9026
vn 0.6608 -0.3560 -0.6608
vn 0.9026 -0.3560 -0.2419
vn 0.9026 -0.3560 0.2419
vn 0.6608 -0.3560 0.6608
vn 0.2419 -0.3560 0.9026
vn -0.2419 -0.3560 0.9026
vn -0.6608 -0.3560 0.6608
vn -0.9026 -0.3560 0.2419
vn -0.9026 -0.3560 -0.2419
vn -0.6608 -0.3560 -0.6608
vn -0.2419 -0.3560 -0.9026
vn 0.0000 1.0000 0.0000
vn 0.2588 -0.0000 0.9659
vn -0.7071 -0.0000 0.7071
vn 0.9659 0.0000 -0.2588
vn -0.2588 0.0000 -0.9659
vn -0.9659 -0.0000 0.2588
vn 0.9659 0.0000 0.2588
vn 0.2588 0.0000 -0.9659
vn -0.9659 0.0000 -0.2588
vn 0.7071 -0.0000 0.7071
vn -0.2588 -0.0000 0.9659
vn 0.7071 0.0000 -0.7071
usemtl None
s 1
f 1/1/1 2/2/1 3/3/1 4/4/1
f 4/4/2 3/3/2 5/5/2 6/6/2
f 6/6/3 5/5/3 7/7/3 8/8/3
f 8/8/4 7/7/4 9/9/4 10/10/4
f 10/10/5 9/9/5 11/11/5 12/12/5
f 12/12/6 11/11/6 13/13/6 14/14/6
f 14/15/7 13/16/7 15/17/7 16/18/7
f 16/18/8 15/17/8 17/19/8 18/20/8
f 18/20/9 17/19/9 19/21/9 20/22/9
f 20/22/10 19/21/10 21/23/10 22/24/10
f 23/25/11 24/26/11 25/27/11 26/28/11
f 22/24/12 21/23/12 27/29/12 28/30/12
f 28/30/13 27/29/13 2/2/13 1/1/13
f 29/31/14 30/32/14 31/33/14 32/34/14 33/35/14 34/36/14 35/37/14 36/38/14 37/39/14 38/40/14 39/41/14 40/42/14
f 41/43/15 42/44/15 43/45/15 44/46/15
f 45/47/16 46/48/16 42/44/16 41/43/16
f 47/49/17 48/50/17 46/48/17 45/47/17
f 49/51/18 50/52/18 48/50/18 47/49/18
f 51/53/19 52/54/19 50/52/19 49/51/19
f 53/55/20 54/56/20 52/54/20 51/53/20
f 55/57/21 56/58/21 54/59/21 53/60/21
f 57/61/22 58/62/22 56/58/22 55/57/22
f 59/63/23 60/64/23 58/62/23 57/61/23
f 61/65/24 62/66/24 60/64/24 59/63/24
f 63/67/25 64/68/25 62/66/25 61/65/25
f 44/46/26 43/45/26 64/68/26 63/67/26
f 42/44/27 28/30/27 1/1/27 43/45/27
f 46/48/28 22/24/28 28/30/28 42/44/28
f 48/50/29 20/22/29 22/24/29 46/48/29
f 50/52/30 18/20/30 20/22/30 48/50/30
f 52/54/31 16/18/31 18/20/31 50/52/31
f 54/56/32 14/15/32 16/18/32 52/54/32
f 56/58/33 12/12/33 14/14/33 54/59/33
f 58/62/34 10/10/34 12/12/34 56/58/34
f 60/64/35 8/8/35 10/10/35 58/62/35
f 62/66/36 6/6/36 8/8/36 60/64/36
f 64/68/37 4/4/37 6/6/37 62/66/37
f 43/45/38 1/1/38 4/4/38 64/68/38
f 29/69/39 44/46/39 63/67/39 30/70/39
f 30/70/40 63/67/40 61/65/40 31/71/40
f 31/71/41 61/65/41 59/63/41 32/72/41
f 32/72/42 59/63/42 57/61/42 33/73/42
f 33/73/43 57/61/43 55/57/43 34/74/43
f 34/74/44 55/57/44 53/60/44 35/75/44
f 35/76/45 53/55/45 51/53/45 36/77/45
f 36/77/46 51/53/46 49/51/46 37/78/46
f 37/78/47 49/51/47 47/49/47 38/79/47
f 38/79/48 47/49/48 45/47/48 39/80/48
f 39/80/49 45/47/49 41/43/49 40/81/49
f 40/81/50 41/43/50 44/46/50 29/69/50
f 65/82/51 66/83/51 3/3/51 2/2/51
f 66/83/51 67/84/51 5/5/51 3/3/51
f 67/84/51 68/85/51 7/7/51 5/5/51
f 68/85/51 24/26/51 9/9/51 7/7/51
f 24/26/51 23/25/51 11/11/51 9/9/51
f 23/25/51 69/86/51 13/13/51 11/11/51
f 69/87/51 70/88/51 15/17/51 13/16/51
f 70/88/51 71/89/51 17/19/51 15/17/51
f 71/89/51 72/90/51 19/21/51 17/19/51
f 72/90/51 73/91/51 21/23/51 19/21/51
f 73/91/51 74/92/51 27/29/51 21/23/51
f 74/92/51 65/82/51 2/2/51 27/29/51
f 75/93/51 76/94/51 77/95/51 78/96/51 79/97/51 80/98/51 81/99/51 82/100/51 26/101/51 25/102/51 83/103/51 84/104/51
f 65/82/52 74/92/52 77/105/52 76/106/52
f 67/84/53 66/83/53 75/107/53 84/108/53
f 72/90/54 71/89/54 80/109/54 79/110/54
f 69/86/55 23/25/55 26/28/55 82/111/55
f 68/85/56 67/84/56 84/108/56 83/112/56
f 73/91/57 72/90/57 79/110/57 78/113/57
f 70/88/58 69/87/58 82/114/58 81/115/58
f 24/26/59 68/85/59 83/112/59 25/27/59
f 74/92/60 73/91/60 78/113/60 77/105/60
f 66/83/61 65/82/61 76/106/61 75/107/61
f 71/89/62 70/88/62 81/115/62 80/109/62
