# Blender v2.79 (sub 0) OBJ File: 'a.blend'
# www.blender.org
mtllib Fence_01.mtl
o Cube_Cube:001.000
v -0.038968 0.547393 0.408512
v -0.038968 0.547393 0.279228
v -0.038968 0.016284 0.279228
v -0.038968 0.016284 0.408512
v 0.064407 0.547393 0.279228
v 0.064407 0.016284 0.279228
v 0.064407 0.547393 0.408512
v 0.064407 0.016284 0.408512
v 0.063758 0.307656 0.461238
v 0.063758 0.436940 0.461238
v 0.063758 0.436940 -0.470681
v 0.063758 0.307657 -0.470681
v 0.129498 0.436940 0.461238
v 0.129498 0.436940 -0.470681
v 0.129498 0.307656 0.461238
v 0.129498 0.307657 -0.470681
v -0.038968 0.547393 -0.290808
v -0.038968 0.547393 -0.420092
v -0.038968 0.016284 -0.420092
v -0.038968 0.016284 -0.290808
v 0.064407 0.547393 -0.420092
v 0.064407 0.016284 -0.420092
v 0.064407 0.547393 -0.290808
v 0.064407 0.016284 -0.290808
v 0.065127 0.153393 0.463942
v 0.064494 0.282329 0.454480
v 0.084101 0.214232 -0.474741
v 0.084734 0.085297 -0.465279
v 0.130219 0.282751 0.455836
v 0.149826 0.214655 -0.473385
v 0.130852 0.153815 0.465298
v 0.150459 0.085719 -0.463923
vt 0.821167 0.468072
vt 0.733988 0.468072
vt 0.733988 0.109933
vt 0.821167 0.109933
vt 0.664280 0.468072
vt 0.664280 0.109933
vt 0.577101 0.468072
vt 0.577101 0.109933
vt 0.890875 0.468072
vt 0.890875 0.109933
vt 0.821167 0.537780
vt 0.733988 0.537780
vt 0.733988 0.040225
vt 0.821167 0.040225
vt 0.384679 0.677886
vt 0.297501 0.677886
vt 0.297501 0.049472
vt 0.384679 0.049472
vt 0.560518 0.677886
vt 0.516188 0.677886
vt 0.516188 0.049472
vt 0.560518 0.049472
vt 0.429009 0.677886
vt 0.429009 0.049472
vt 0.516188 0.722216
vt 0.429009 0.722216
vt 0.429009 0.005142
vt 0.516188 0.005142
vt 0.920963 0.922283
vt 0.833784 0.922283
vt 0.833784 0.564145
vt 0.920963 0.564145
vt 0.764076 0.922283
vt 0.764076 0.564145
vt 0.676897 0.922283
vt 0.676897 0.564145
vt 0.990671 0.922283
vt 0.990671 0.564145
vt 0.920963 0.991992
vt 0.833784 0.991992
vt 0.833784 0.494437
vt 0.920963 0.494437
vt 0.089132 0.674697
vt 0.001953 0.674697
vt 0.001953 0.046283
vt 0.089132 0.046283
vt 0.264971 0.674697
vt 0.220641 0.674697
vt 0.220641 0.046283
vt 0.264971 0.046283
vt 0.133462 0.674697
vt 0.133462 0.046283
vt 0.220641 0.719027
vt 0.133462 0.719027
vt 0.133462 0.001953
vt 0.220641 0.001953
vn -1.0000 0.0000 0.0000
vn 0.0000 0.0000 -1.0000
vn 1.0000 0.0000 0.0000
vn 0.0000 -0.0000 1.0000
vn 0.0000 1.0000 0.0000
vn 0.0000 -1.0000 -0.0000
vn -0.9998 -0.0064 -0.0206
vn -0.0049 0.9973 -0.0732
vn 0.9998 0.0064 0.0206
vn 0.0049 -0.9973 0.0732
vn -0.0210 0.0731 0.9971
vn 0.0210 -0.0731 -0.9971
usemtl None.006
s 1
f 1/1/1 2/2/1 3/3/1 4/4/1
f 2/2/2 5/5/2 6/6/2 3/3/2
f 5/5/3 7/7/3 8/8/3 6/6/3
f 7/9/4 1/1/4 4/4/4 8/10/4
f 2/2/5 1/1/5 7/11/5 5/12/5
f 6/13/6 8/14/6 4/4/6 3/3/6
f 9/15/1 10/16/1 11/17/1 12/18/1
f 10/19/5 13/20/5 14/21/5 11/22/5
f 13/20/3 15/23/3 16/24/3 14/21/3
f 15/23/6 9/15/6 12/18/6 16/24/6
f 10/25/4 9/26/4 15/23/4 13/20/4
f 14/21/2 16/24/2 12/27/2 11/28/2
f 17/29/1 18/30/1 19/31/1 20/32/1
f 18/30/2 21/33/2 22/34/2 19/31/2
f 21/33/3 23/35/3 24/36/3 22/34/3
f 23/37/4 17/29/4 20/32/4 24/38/4
f 18/30/5 17/29/5 23/39/5 21/40/5
f 22/41/6 24/42/6 20/32/6 19/31/6
f 25/43/7 26/44/7 27/45/7 28/46/7
f 26/47/8 29/48/8 30/49/8 27/50/8
f 29/48/9 31/51/9 32/52/9 30/49/9
f 31/51/10 25/43/10 28/46/10 32/52/10
f 26/53/11 25/54/11 31/51/11 29/48/11
f 30/49/12 32/52/12 28/55/12 27/56/12
