# Blender v2.79 (sub 0) OBJ File: 'a.blend'
# www.blender.org
mtllib Fence_02.mtl
o Cube_Cube:001.003
v -0.041687 0.585585 0.437014
v -0.041687 0.585585 0.298710
v -0.041687 0.017420 0.298710
v -0.041687 0.017420 0.437014
v 0.068901 0.585585 0.298710
v 0.068901 0.017420 0.298710
v 0.068901 0.585585 0.437014
v 0.068901 0.017420 0.437014
v 0.068207 0.127711 0.493419
v 0.068207 0.266015 0.493419
v 0.068207 0.266015 -0.503521
v 0.068207 0.127711 -0.503521
v 0.138533 0.266015 0.493419
v 0.138533 0.266015 -0.503521
v 0.138533 0.127711 0.493419
v 0.138533 0.127711 -0.503521
v 0.068207 0.329122 0.493419
v 0.068207 0.467425 0.493419
v 0.068207 0.467426 -0.503521
v 0.068207 0.329122 -0.503521
v 0.138533 0.467425 0.493419
v 0.138533 0.467426 -0.503521
v 0.138533 0.329122 0.493419
v 0.138533 0.329122 -0.503521
v -0.041687 0.585585 -0.311098
v -0.041687 0.585585 -0.449401
v -0.041687 0.017420 -0.449401
v -0.041687 0.017420 -0.311098
v 0.068901 0.585585 -0.449401
v 0.068901 0.017420 -0.449401
v 0.068901 0.585585 -0.311098
v 0.068901 0.017420 -0.311098
vt 0.821167 0.468072
vt 0.733988 0.468072
vt 0.733988 0.109933
vt 0.821167 0.109933
vt 0.664280 0.468072
vt 0.664280 0.109933
vt 0.577101 0.468072
vt 0.577101 0.109933
vt 0.890875 0.468072
vt 0.890875 0.109933
vt 0.821167 0.537780
vt 0.733988 0.537780
vt 0.733988 0.040225
vt 0.821167 0.040225
vt 0.089132 0.674697
vt 0.001953 0.674697
vt 0.001953 0.046283
vt 0.089132 0.046283
vt 0.264971 0.674697
vt 0.220641 0.674697
vt 0.220641 0.046283
vt 0.264971 0.046283
vt 0.133462 0.674697
vt 0.133462 0.046283
vt 0.220641 0.719027
vt 0.133462 0.719027
vt 0.133462 0.001953
vt 0.220641 0.001953
vt 0.384679 0.677886
vt 0.297501 0.677886
vt 0.297501 0.049472
vt 0.384679 0.049472
vt 0.560518 0.677886
vt 0.516188 0.677886
vt 0.516188 0.049472
vt 0.560518 0.049472
vt 0.429009 0.677886
vt 0.429009 0.049472
vt 0.516188 0.722216
vt 0.429009 0.722216
vt 0.429009 0.005142
vt 0.516188 0.005142
vt 0.920963 0.922283
vt 0.833784 0.922283
vt 0.833784 0.564145
vt 0.920963 0.564145
vt 0.764076 0.922283
vt 0.764076 0.564145
vt 0.676897 0.922283
vt 0.676897 0.564145
vt 0.990671 0.922283
vt 0.990671 0.564145
vt 0.920963 0.991992
vt 0.833784 0.991992
vt 0.833784 0.494437
vt 0.920963 0.494437
vn -1.0000 0.0000 0.0000
vn 0.0000 0.0000 -1.0000
vn 1.0000 0.0000 0.0000
vn 0.0000 -0.0000 1.0000
vn 0.0000 1.0000 0.0000
vn 0.0000 -1.0000 -0.0000
usemtl None.008
s 1
f 1/1/1 2/2/1 3/3/1 4/4/1
f 2/2/2 5/5/2 6/6/2 3/3/2
f 5/5/3 7/7/3 8/8/3 6/6/3
f 7/9/4 1/1/4 4/4/4 8/10/4
f 2/2/5 1/1/5 7/11/5 5/12/5
f 6/13/6 8/14/6 4/4/6 3/3/6
f 9/15/1 10/16/1 11/17/1 12/18/1
f 10/19/5 13/20/5 14/21/5 11/22/5
f 13/20/3 15/23/3 16/24/3 14/21/3
f 15/23/6 9/15/6 12/18/6 16/24/6
f 10/25/4 9/26/4 15/23/4 13/20/4
f 14/21/2 16/24/2 12/27/2 11/28/2
f 17/29/1 18/30/1 19/31/1 20/32/1
f 18/33/5 21/34/5 22/35/5 19/36/5
f 21/34/3 23/37/3 24/38/3 22/35/3
f 23/37/6 17/29/6 20/32/6 24/38/6
f 18/39/4 17/40/4 23/37/4 21/34/4
f 22/35/2 24/38/2 20/41/2 19/42/2
f 25/43/1 26/44/1 27/45/1 28/46/1
f 26/44/2 29/47/2 30/48/2 27/45/2
f 29/47/3 31/49/3 32/50/3 30/48/3
f 31/51/4 25/43/4 28/46/4 32/52/4
f 26/44/5 25/43/5 31/53/5 29/54/5
f 30/55/6 32/56/6 28/46/6 27/45/6
