# Blender v2.79 (sub 0) OBJ File: 'a.blend'
# www.blender.org
mtllib Grass_01.mtl
o Plane_Plane.000
v 0.006022 0.001605 0.031989
v 0.006022 0.001605 -0.028726
v 0.006022 0.062321 -0.028726
v 0.006022 0.062321 0.031989
v -0.020076 0.002458 0.003373
v 0.040640 0.002458 0.003373
v 0.040640 0.063173 0.003373
v -0.020076 0.063173 0.003373
vt 0.995000 0.005000
vt 0.995000 0.995000
vt 0.005000 0.995000
vt 0.005000 0.005000
vt 0.995000 0.005000
vt 0.995000 0.995000
vt 0.005000 0.995000
vt 0.005000 0.005000
vn 1.0000 -0.0000 -0.0000
vn 0.0000 -0.0000 1.0000
usemtl None.021
s 1
f 1/1/1 2/2/1 3/3/1 4/4/1
f 5/5/2 6/6/2 7/7/2 8/8/2
